<mxfile host="Electron" agent="Mozilla/5.0 (Macintosh; Intel Mac OS X 10_15_7) AppleWebKit/537.36 (KHTML, like Gecko) draw.io/25.0.2 Chrome/128.0.6613.186 Electron/32.2.5 Safari/537.36" version="25.0.2">
  <diagram name="Page-1" id="490LdB_0wVDqxV0LWdER">
    <mxGraphModel dx="1394" dy="950" grid="1" gridSize="10" guides="1" tooltips="1" connect="1" arrows="1" fold="1" page="1" pageScale="1" pageWidth="827" pageHeight="1169" math="0" shadow="0">
      <root>
        <mxCell id="0" />
        <mxCell id="1" parent="0" />
        <object label="" BOM_ID="battery" id="o7mAsANmkJfM8o6Qx-BG-2">
          <mxCell style="verticalLabelPosition=bottom;shadow=0;dashed=0;align=center;fillColor=strokeColor;html=1;verticalAlign=top;strokeWidth=1;shape=mxgraph.electrical.miscellaneous.monocell_battery;rotation=-90;" vertex="1" parent="1">
            <mxGeometry x="120" y="250" width="100" height="60" as="geometry" />
          </mxCell>
        </object>
        <object label="" BOM_ID="res_100" id="o7mAsANmkJfM8o6Qx-BG-3">
          <mxCell style="pointerEvents=1;verticalLabelPosition=bottom;shadow=0;dashed=0;align=center;html=1;verticalAlign=top;shape=mxgraph.electrical.resistors.resistor_1;" vertex="1" parent="1">
            <mxGeometry x="250" y="120" width="100" height="20" as="geometry" />
          </mxCell>
        </object>
        <mxCell id="o7mAsANmkJfM8o6Qx-BG-4" style="edgeStyle=orthogonalEdgeStyle;rounded=0;orthogonalLoop=1;jettySize=auto;html=1;exitX=0;exitY=0.5;exitDx=0;exitDy=0;exitPerimeter=0;entryX=1;entryY=0.5;entryDx=0;entryDy=0;entryPerimeter=0;endArrow=none;endFill=0;" edge="1" parent="1" source="o7mAsANmkJfM8o6Qx-BG-3" target="o7mAsANmkJfM8o6Qx-BG-2">
          <mxGeometry relative="1" as="geometry" />
        </mxCell>
        <object label="" BOM_ID="led_red" id="o7mAsANmkJfM8o6Qx-BG-5">
          <mxCell style="verticalLabelPosition=bottom;shadow=0;dashed=0;align=center;html=1;verticalAlign=top;shape=mxgraph.electrical.opto_electronics.led_1;pointerEvents=1;rotation=90;" vertex="1" parent="1">
            <mxGeometry x="390" y="150" width="100" height="65" as="geometry" />
          </mxCell>
        </object>
        <mxCell id="o7mAsANmkJfM8o6Qx-BG-7" style="edgeStyle=orthogonalEdgeStyle;rounded=0;orthogonalLoop=1;jettySize=auto;html=1;exitX=1;exitY=0.5;exitDx=0;exitDy=0;exitPerimeter=0;entryX=0;entryY=0.54;entryDx=0;entryDy=0;entryPerimeter=0;strokeColor=default;align=center;verticalAlign=middle;fontFamily=Helvetica;fontSize=11;fontColor=default;labelBackgroundColor=default;endArrow=none;endFill=0;" edge="1" parent="1" source="o7mAsANmkJfM8o6Qx-BG-3" target="o7mAsANmkJfM8o6Qx-BG-5">
          <mxGeometry relative="1" as="geometry">
            <Array as="points">
              <mxPoint x="437" y="130" />
            </Array>
          </mxGeometry>
        </mxCell>
        <object label="" BOM_ID="led_red" id="o7mAsANmkJfM8o6Qx-BG-8">
          <mxCell style="verticalLabelPosition=bottom;shadow=0;dashed=0;align=center;html=1;verticalAlign=top;shape=mxgraph.electrical.opto_electronics.led_1;pointerEvents=1;rotation=90;" vertex="1" parent="1">
            <mxGeometry x="390" y="260" width="100" height="65" as="geometry" />
          </mxCell>
        </object>
        <object label="" BOM_ID="led_red" id="o7mAsANmkJfM8o6Qx-BG-9">
          <mxCell style="verticalLabelPosition=bottom;shadow=0;dashed=0;align=center;html=1;verticalAlign=top;shape=mxgraph.electrical.opto_electronics.led_1;pointerEvents=1;rotation=90;" vertex="1" parent="1">
            <mxGeometry x="390" y="370" width="100" height="65" as="geometry" />
          </mxCell>
        </object>
        <mxCell id="o7mAsANmkJfM8o6Qx-BG-10" style="edgeStyle=orthogonalEdgeStyle;rounded=0;orthogonalLoop=1;jettySize=auto;html=1;exitX=0;exitY=0.54;exitDx=0;exitDy=0;exitPerimeter=0;entryX=1;entryY=0.54;entryDx=0;entryDy=0;entryPerimeter=0;strokeColor=default;align=center;verticalAlign=middle;fontFamily=Helvetica;fontSize=11;fontColor=default;labelBackgroundColor=default;endArrow=none;endFill=0;" edge="1" parent="1" source="o7mAsANmkJfM8o6Qx-BG-9" target="o7mAsANmkJfM8o6Qx-BG-8">
          <mxGeometry relative="1" as="geometry" />
        </mxCell>
        <mxCell id="o7mAsANmkJfM8o6Qx-BG-11" style="edgeStyle=orthogonalEdgeStyle;rounded=0;orthogonalLoop=1;jettySize=auto;html=1;exitX=0;exitY=0.54;exitDx=0;exitDy=0;exitPerimeter=0;entryX=1;entryY=0.54;entryDx=0;entryDy=0;entryPerimeter=0;strokeColor=default;align=center;verticalAlign=middle;fontFamily=Helvetica;fontSize=11;fontColor=default;labelBackgroundColor=default;endArrow=none;endFill=0;" edge="1" parent="1" source="o7mAsANmkJfM8o6Qx-BG-8" target="o7mAsANmkJfM8o6Qx-BG-5">
          <mxGeometry relative="1" as="geometry" />
        </mxCell>
        <mxCell id="o7mAsANmkJfM8o6Qx-BG-12" style="edgeStyle=orthogonalEdgeStyle;rounded=0;orthogonalLoop=1;jettySize=auto;html=1;exitX=0;exitY=0.5;exitDx=0;exitDy=0;exitPerimeter=0;entryX=1;entryY=0.54;entryDx=0;entryDy=0;entryPerimeter=0;strokeColor=default;align=center;verticalAlign=middle;fontFamily=Helvetica;fontSize=11;fontColor=default;labelBackgroundColor=default;endArrow=none;endFill=0;" edge="1" parent="1" source="o7mAsANmkJfM8o6Qx-BG-2" target="o7mAsANmkJfM8o6Qx-BG-9">
          <mxGeometry relative="1" as="geometry" />
        </mxCell>
      </root>
    </mxGraphModel>
  </diagram>
</mxfile>
